# xmcd CD database file
#
# Track frame offsets:
#	150
#	55726
#	118383
#	168575
#	231363
#	308466
#
# Disc length: 4594 seconds
#
# Revision: 0
# Processed by: cddbd v1.5.2PL0 Copyright (c) Steve Scherf et al.
# Submitted via: CDex 1.50beta9
#
DISCID=4b11f006
DTITLE=Melek-Tha - Organic Mutation
DYEAR=2002
DGENRE=Dark Industrial
TTITLE0=Worms Proliferation
TTITLE1=Neuronal Disturbancy
TTITLE2=Embryonic Infestation
TTITLE3=The Hidden Face
TTITLE4=Organic Mutation
TTITLE5=The Entity Revival
EXTD=YEAR: 2002
EXTT0=
EXTT1=
EXTT2=
EXTT3=
EXTT4=
EXTT5=
PLAYORDER=
